<svg width="226" height="201" viewBox="0 0 226 201" fill="none" xmlns="http://www.w3.org/2000/svg">
<path d="M163.115 69.3909C159.881 63.7895 152.719 61.8704 147.118 65.1043L137.574 85.3887L158.829 85.3887C164.43 82.1547 166.349 74.9923 163.115 69.3909Z" fill="#F1F5F9" stroke="#94A3B8" stroke-width="2" stroke-linecap="round"/>
<path d="M213.229 41.6749L181.957 59.7297" stroke="#94A3B8" stroke-width="2" stroke-linecap="round"/>
<path d="M224.923 102.918L190.044 93.5724" stroke="#94A3B8" stroke-width="2" stroke-linecap="round"/>
<path d="M166.08 1L156.734 35.8791" stroke="#94A3B8" stroke-width="2" stroke-linecap="round"/>
<path d="M32.5348 144.782C28.5171 137.335 26.2488 119.45 49.316 107.484C50.3473 106.949 51.3904 106.412 52.443 105.869C77.4977 92.9599 107.902 77.294 110.878 27.3874C111.188 22.1897 118.797 19.9553 121.4 24.4647L181.165 127.98C183.769 132.49 178.029 137.962 173.373 135.632C128.665 113.256 99.8953 131.754 76.1881 146.997C75.1921 147.637 74.2051 148.272 73.2261 148.898C51.3301 162.892 36.9753 151.984 32.5348 144.782Z" fill="#F1F5F9" stroke="#94A3B8" stroke-width="2"/>
<path d="M69.0004 151.338L97.077 186.642C98.7686 188.769 101.529 189.739 104.179 189.139C108.829 188.086 111.128 182.828 108.744 178.699L86.7104 140.535L69.0004 151.338Z" fill="#F1F5F9"/>
<path d="M63.6602 100.611L86.7104 140.535M86.7104 140.535L108.744 178.699C111.128 182.828 108.829 188.086 104.179 189.139V189.139C101.529 189.739 98.7686 188.769 97.077 186.642L69.0004 151.338L86.7104 140.535Z" stroke="#94A3B8" stroke-width="2" stroke-linecap="round"/>
<path d="M99.139 134.2C98.8628 133.722 98.2512 133.558 97.7729 133.834C97.2947 134.11 97.1308 134.722 97.4069 135.2L99.139 134.2ZM93.1531 149.743C92.6748 150.019 92.5109 150.631 92.787 151.109C93.0632 151.587 93.6748 151.751 94.1531 151.475L93.1531 149.743ZM97.4069 135.2L98.1405 136.471L99.8726 135.471L99.139 134.2L97.4069 135.2ZM94.8463 148.765L93.1531 149.743L94.1531 151.475L95.8463 150.497L94.8463 148.765ZM98.1405 136.471C100.626 140.776 99.1509 146.28 94.8463 148.765L95.8463 150.497C101.108 147.46 102.91 140.732 99.8726 135.471L98.1405 136.471Z" fill="#94A3B8"/>
</svg>
